<?xml version="1.0" encoding="UTF-8"?>
<svg version="1.1" xmlns="http://www.w3.org/2000/svg" width="520" height="236">
<path d="M0 0 C171.6 0 343.2 0 520 0 C520 77.88 520 155.76 520 236 C348.4 236 176.8 236 0 236 C0 158.12 0 80.24 0 0 Z " fill="#0033FF" transform="translate(0,0)"/>
<path d="M0 0 C1.11455566 -0.00630432 2.22911133 -0.01260864 3.37744141 -0.019104 C4.58577637 -0.01505554 5.79411133 -0.01100708 7.0390625 -0.00683594 C8.89217041 -0.00970612 8.89217041 -0.00970612 10.78271484 -0.01263428 C14.06997657 -0.01434704 17.35705037 -0.00627793 20.64428711 0.00488281 C22.6620078 0.00878509 24.67955451 0.00489736 26.69726562 -0.00195312 C30.56128078 -0.01427098 34.42503678 -0.01282072 38.2890625 -0.00683594 C39.49739746 -0.0108844 40.70573242 -0.01493286 41.95068359 -0.019104 C43.06523926 -0.01279968 44.17979492 -0.00649536 45.328125 0 C46.80466553 0.00238678 46.80466553 0.00238678 48.31103516 0.00482178 C50.6640625 0.25878906 50.6640625 0.25878906 52.6640625 2.25878906 C52.86412552 5.2484101 52.94379173 8.14341256 52.9296875 11.13378906 C52.93255768 12.45419189 52.93255768 12.45419189 52.93548584 13.80126953 C52.93684802 15.6640654 52.93314932 17.52687076 52.92480469 19.38964844 C52.91410557 22.24728642 52.92469882 25.10429572 52.9375 27.96191406 C52.93617841 29.76920712 52.93361603 31.57649979 52.9296875 33.38378906 C52.93373596 34.24214355 52.93778442 35.10049805 52.94195557 35.98486328 C52.89397995 42.02887162 52.89397995 42.02887162 50.6640625 44.25878906 C47.68298887 44.32145086 44.78290938 44.27023931 41.80859375 44.14550781 C19.68152838 42.35216409 19.68152838 42.35216409 0.39916992 50.68969727 C-2.17783148 53.74548964 -4.3134812 56.8077394 -6.3359375 60.25878906 C-6.6659375 60.25878906 -6.9959375 60.25878906 -7.3359375 60.25878906 C-7.3822304 52.73110126 -7.41779115 45.20342818 -7.43956184 37.67563057 C-7.45000948 34.18034979 -7.46418633 30.68516623 -7.48681641 27.18994141 C-7.51265703 23.1738185 -7.52240216 19.1577981 -7.53125 15.14160156 C-7.54157257 13.88324493 -7.55189514 12.62488831 -7.56253052 11.32839966 C-7.56268158 10.16734711 -7.56283264 9.00629456 -7.56298828 7.81005859 C-7.5674295 6.78413605 -7.57187073 5.7582135 -7.57644653 4.70120239 C-7.09063224 -0.23233081 -4.23054139 0.00683853 0 0 Z " fill="#FDFEFF" transform="translate(85.3359375,77.7412109375)"/>
<path d="M0 0 C3.3 0 6.6 0 10 0 C12 2 12 2 12.24050903 4.5942688 C12.23606781 5.69125092 12.23162659 6.78823303 12.22705078 7.91845703 C12.22689972 9.15959259 12.22674866 10.40072815 12.22659302 11.67947388 C12.216379 13.0389217 12.205947 14.3983679 12.1953125 15.7578125 C12.19158284 17.14500729 12.18873565 18.53220471 12.18673706 19.91940308 C12.17909684 23.57240051 12.15944516 27.22523917 12.1373291 30.87817383 C12.11687896 34.60495862 12.10773713 38.33176904 12.09765625 42.05859375 C12.07619951 49.37246825 12.04205903 56.68621189 12 64 C7.88150709 60.65890602 4.62596477 57.50786085 1.52734375 53.18359375 C-4.05056365 47.53940949 -10.44205099 48.02066671 -17.9256897 47.93954468 C-21.0973109 47.95136716 -24.26641563 48.0044674 -27.4375 48.0625 C-30.63771363 48.08339759 -33.8375782 48.09180015 -37.03785706 48.09165955 C-39.02226681 48.09559896 -41.00671065 48.11400199 -42.99082947 48.14820862 C-44.32846092 48.16197792 -44.32846092 48.16197792 -45.69311523 48.17602539 C-46.47871323 48.18984756 -47.26431122 48.20366974 -48.07371521 48.21791077 C-50 48 -50 48 -52 46 C-52 42.7 -52 39.4 -52 36 C-34.84 36 -17.68 36 0 36 C0 24.12 0 12.24 0 0 Z " fill="#FDFDFF" transform="translate(146,94)"/>
<path d="M0 0 C1.093125 0.00257812 2.18625 0.00515625 3.3125 0.0078125 C4.405625 0.00523438 5.49875 0.00265625 6.625 0 C9.3125 0.1328125 9.3125 0.1328125 10.3125 1.1328125 C10.4008967 3.5084977 10.42780305 5.85489924 10.41015625 8.23046875 C10.4087413 8.93932724 10.40732635 9.64818573 10.40586853 10.37852478 C10.40025443 12.65082962 10.38769963 14.92303725 10.375 17.1953125 C10.36998681 18.73242046 10.36542359 20.26952995 10.36132812 21.80664062 C10.35028042 25.58206892 10.33300641 29.35742421 10.3125 33.1328125 C11.6325 33.1328125 12.9525 33.1328125 14.3125 33.1328125 C14.3125 35.1128125 14.3125 37.0928125 14.3125 39.1328125 C10.6825 39.1328125 7.0525 39.1328125 3.3125 39.1328125 C2.9825 38.4728125 2.6525 37.8128125 2.3125 37.1328125 C1.673125 37.6484375 1.03375 38.1640625 0.375 38.6953125 C-3.86862569 40.68721844 -7.22759513 40.47401578 -11.6875 39.1328125 C-14.92794458 36.56746054 -16.38310167 35.0460075 -17.6875 31.1328125 C-18.8329 21.21567834 -18.8329 21.21567834 -16.41796875 16.82421875 C-14.35544755 14.41041656 -12.53753466 12.55782983 -9.6875 11.1328125 C-2.22083333 10.77725694 -2.22083333 10.77725694 1.3125 13.1328125 C1.6425 11.1528125 1.9725 9.1728125 2.3125 7.1328125 C0.3325 7.1328125 -1.6475 7.1328125 -3.6875 7.1328125 C-3.73004356 5.13326504 -3.72830783 3.13239614 -3.6875 1.1328125 C-2.6875 0.1328125 -2.6875 0.1328125 0 0 Z " fill="#F2F5FF" transform="translate(285.6875,91.8671875)"/>
<path d="M0 0 C1.81242052 -0.02687279 3.62495233 -0.04633715 5.4375 -0.0625 C6.44683594 -0.07410156 7.45617187 -0.08570312 8.49609375 -0.09765625 C11 0 11 0 12 1 C12.23427778 3.01594582 12.41336124 5.038474 12.5625 7.0625 C12.64628906 8.16722656 12.73007812 9.27195312 12.81640625 10.41015625 C12.87699219 11.26480469 12.93757813 12.11945313 13 13 C13.99 12.34 14.98 11.68 16 11 C21.00764086 10.53632955 24.01537913 10.87691878 28 14 C30.8449367 16.38359561 31.87469073 18.09878588 32.38671875 21.78125 C32.56148298 26.65054316 32.41706984 30.11951923 30.3125 34.5625 C26.79563158 38.26946941 24.58330577 39.83333624 19.4375 40.375 C15.88820703 39.9878044 14.53164264 39.43037694 12 37 C11.67 37.66 11.34 38.32 11 39 C7.37 39 3.74 39 0 39 C0 37.02 0 35.04 0 33 C1.32 33 2.64 33 4 33 C4 24.42 4 15.84 4 7 C2.68 7 1.36 7 0 7 C0 4.69 0 2.38 0 0 Z " fill="#F3F6FF" transform="translate(340,92)"/>
<path d="M0 0 C2.94856443 0.26890908 5.55084242 -0.19923098 8.44140625 -0.77734375 C9.10140625 -0.44734375 9.76140625 -0.11734375 10.44140625 0.22265625 C10.44140625 3.85265625 10.44140625 7.48265625 10.44140625 11.22265625 C5.12266466 11.71742291 3.49064291 10.46204558 -0.55859375 7.22265625 C-3.76839511 6.88752031 -3.76839511 6.88752031 -6.55859375 7.22265625 C-6.88859375 8.54265625 -7.21859375 9.86265625 -7.55859375 11.22265625 C-6.60597656 11.45339844 -5.65335938 11.68414062 -4.671875 11.921875 C-3.41761719 12.24800781 -2.16335937 12.57414062 -0.87109375 12.91015625 C0.37027344 13.22339844 1.61164063 13.53664063 2.890625 13.859375 C6.8684917 15.38663075 8.81471865 16.88992293 11.44140625 20.22265625 C12.29301221 23.31171139 12.05550967 26.0895916 11.44140625 29.22265625 C9.64762724 32.34516045 8.23926187 33.76981928 5.12890625 35.53515625 C0.39359741 36.74651433 -3.88286754 36.48150561 -8.55859375 35.22265625 C-9.05359375 35.71765625 -9.05359375 35.71765625 -9.55859375 36.22265625 C-12.55859375 36.34765625 -12.55859375 36.34765625 -15.55859375 36.22265625 C-16.55859375 35.22265625 -16.55859375 35.22265625 -16.69140625 32.53515625 C-16.68882812 31.44203125 -16.68625 30.34890625 -16.68359375 29.22265625 C-16.68617188 28.12953125 -16.68875 27.03640625 -16.69140625 25.91015625 C-16.55859375 23.22265625 -16.55859375 23.22265625 -15.55859375 22.22265625 C-13.30859375 21.78515625 -13.30859375 21.78515625 -10.55859375 22.22265625 C-9.77484375 23.21265625 -8.99109375 24.20265625 -8.18359375 25.22265625 C-5.79934308 28.63812829 -5.79934308 28.63812829 -1.74609375 28.59765625 C-0.69421875 28.47390625 0.35765625 28.35015625 1.44140625 28.22265625 C1.77140625 26.90265625 2.10140625 25.58265625 2.44140625 24.22265625 C1.88453125 24.0525 1.32765625 23.88234375 0.75390625 23.70703125 C-13.18716518 19.27979911 -13.18716518 19.27979911 -16.55859375 14.22265625 C-17.00315786 9.62882706 -17.21448178 7.34009512 -14.87109375 3.34765625 C-9.94447522 -1.17950673 -6.32911909 -0.82061604 0 0 Z " fill="#EFF2FF" transform="translate(211.55859375,95.77734375)"/>
<path d="M0 0 C2.4375 1.6875 2.4375 1.6875 4.4375 4.6875 C4.73741069 7.27635171 4.94615225 9.77899082 5.0625 12.375 C5.10117187 13.07689453 5.13984375 13.77878906 5.1796875 14.50195312 C5.2737334 16.23004655 5.3566968 17.95873675 5.4375 19.6875 C6.7575 20.0175 8.0775 20.3475 9.4375 20.6875 C9.4375 22.6675 9.4375 24.6475 9.4375 26.6875 C8.02094207 26.7147415 6.60422955 26.73400467 5.1875 26.75 C4.00414062 26.76740234 4.00414062 26.76740234 2.796875 26.78515625 C0.4375 26.6875 0.4375 26.6875 -1.71484375 26.125 C-3.67392035 25.47277906 -3.67392035 25.47277906 -5.875 26.625 C-9.32208308 27.98780029 -11.88021928 28.01627506 -15.5625 27.6875 C-19.1011994 26.03610695 -20.37320153 24.97144771 -22.5625 21.6875 C-23.19524336 15.99280973 -23.19524336 15.99280973 -22.5625 13.6875 C-19.74984441 10.64664782 -18.15838255 9.75305364 -14.01171875 9.296875 C-12.77035156 9.34328125 -11.52898437 9.3896875 -10.25 9.4375 C-8.99574219 9.47359375 -7.74148438 9.5096875 -6.44921875 9.546875 C-5.02029297 9.61648437 -5.02029297 9.61648437 -3.5625 9.6875 C-4.2225 8.6975 -4.8825 7.7075 -5.5625 6.6875 C-6.47773438 6.78289062 -7.39296875 6.87828125 -8.3359375 6.9765625 C-10.11871094 7.14285156 -10.11871094 7.14285156 -11.9375 7.3125 C-13.71253906 7.48652344 -13.71253906 7.48652344 -15.5234375 7.6640625 C-16.52632813 7.67179687 -17.52921875 7.67953125 -18.5625 7.6875 C-19.2225 7.0275 -19.8825 6.3675 -20.5625 5.6875 C-20.5 3.1875 -20.5 3.1875 -19.5625 0.6875 C-13.41867966 -2.46012627 -6.38515233 -2.35242454 0 0 Z " fill="#F3F5FF" transform="translate(401.5625,104.3125)"/>
<path d="M0 0 C4.43294702 3.79966887 4.43294702 3.79966887 5.625 6.25 C5.625 9.22 5.625 12.19 5.625 15.25 C-0.975 15.25 -7.575 15.25 -14.375 15.25 C-10.9185365 19.62055462 -10.9185365 19.62055462 -6.9921875 19.3515625 C-5.13980469 19.11566406 -5.13980469 19.11566406 -3.25 18.875 C-0.96600121 18.59484214 1.32706366 18.37094402 3.625 18.25 C4.285 18.91 4.945 19.57 5.625 20.25 C5.25 22.875 5.25 22.875 4.625 25.25 C-2.33503859 27.2747385 -8.67534578 28.50648634 -15.6875 26.125 C-19.15010222 23.70923101 -20.60583095 22.12856292 -22.375 18.25 C-23.07229512 13.49926966 -23.49972481 8.65617357 -21.421875 4.2109375 C-16.12740396 -2.59145251 -7.42270056 -3.8488077 0 0 Z " fill="#F3F6FF" transform="translate(328.375,104.75)"/>
<path d="M0 0 C0.99 0.66 1.98 1.32 3 2 C2.67 4.31 2.34 6.62 2 9 C0.783125 8.9175 -0.43375 8.835 -1.6875 8.75 C-4.75869337 8.7771787 -6.04032012 9.02016006 -8.875 10.4375 C-11.91875753 14.10791349 -12.24240636 17.31669385 -13 22 C-9.37 22 -5.74 22 -2 22 C-2 23.65 -2 25.3 -2 27 C-3 28 -3 28 -5.31665039 28.11352539 C-6.31688232 28.10828857 -7.31711426 28.10305176 -8.34765625 28.09765625 C-9.42724609 28.09443359 -10.50683594 28.09121094 -11.61914062 28.08789062 C-12.75544922 28.07951172 -13.89175781 28.07113281 -15.0625 28.0625 C-16.20267578 28.05798828 -17.34285156 28.05347656 -18.51757812 28.04882812 C-21.34510351 28.03699747 -24.1725264 28.0205141 -27 28 C-27 26.02 -27 24.04 -27 22 C-25.02 22 -23.04 22 -21 22 C-21 17.05 -21 12.1 -21 7 C-22.65 7 -24.3 7 -26 7 C-26 5.02 -26 3.04 -26 1 C-21.71 1 -17.42 1 -13 1 C-12.67 2.32 -12.34 3.64 -12 5 C-10.700625 3.7625 -10.700625 3.7625 -9.375 2.5 C-6.22440599 -0.12921912 -4.15026879 -0.64559737 0 0 Z " fill="#F1F4FF" transform="translate(443,103)"/>
<path d="M0 0 C1.39456867 0.00574201 2.78910972 0.01875397 4.18359375 0.03515625 C6.63796875 0.05578125 9.09234375 0.07640625 11.62109375 0.09765625 C11.62109375 7.02765625 11.62109375 13.95765625 11.62109375 21.09765625 C14.92109375 21.09765625 18.22109375 21.09765625 21.62109375 21.09765625 C21.62109375 23.07765625 21.62109375 25.05765625 21.62109375 27.09765625 C12.71109375 27.09765625 3.80109375 27.09765625 -5.37890625 27.09765625 C-5.37890625 25.11765625 -5.37890625 23.13765625 -5.37890625 21.09765625 C-2.40890625 21.09765625 0.56109375 21.09765625 3.62109375 21.09765625 C3.62109375 16.14765625 3.62109375 11.19765625 3.62109375 6.09765625 C1.31109375 6.09765625 -0.99890625 6.09765625 -3.37890625 6.09765625 C-3.76109392 4.44150968 -4.09285727 2.77308601 -4.37890625 1.09765625 C-3.37890625 0.09765625 -3.37890625 0.09765625 0 0 Z " fill="#F8F9FF" transform="translate(238.37890625,103.90234375)"/>
<path d="M0 0 C2 2 2 2 2.375 5.875 C2.28655777 8.90967393 2.05653615 9.91084685 0.375 12.5625 C-2 14 -2 14 -5.125 13.9375 C-8 13 -8 13 -10 10 C-10.47168946 7.27955849 -10.45296694 4.72346375 -10 2 C-7.05579372 -1.7368772 -4.33155649 -1.22413553 0 0 Z " fill="#0E3EFF" transform="translate(362,111)"/>
<path d="M0 0 C2.48836965 3.73255448 2.54226552 5.58440935 2 10 C-0.1875 12.5 -0.1875 12.5 -3 14 C-5.6875 13.9375 -5.6875 13.9375 -8 13 C-10.54440716 9.18338925 -10.57622479 6.4703891 -10 2 C-7.76411593 -2.34024556 -4.18639275 -1.06562725 0 0 Z " fill="#0B3CFF" transform="translate(286,111)"/>
<path d="M0 0 C1.134375 0.020625 2.26875 0.04125 3.4375 0.0625 C3.53515625 6.21484375 3.53515625 6.21484375 3.4375 8.0625 C3.1075 8.3925 2.7775 8.7225 2.4375 9.0625 C0.09805264 8.77519945 -2.2364143 8.44313221 -4.5625 8.0625 C-4.60491723 5.72955225 -4.60342937 3.39547433 -4.5625 1.0625 C-3.5625 0.0625 -3.5625 0.0625 0 0 Z " fill="#E9EDFF" transform="translate(246.5625,90.9375)"/>
<path d="M0 0 C1.37478516 0.01740234 1.37478516 0.01740234 2.77734375 0.03515625 C3.69644531 0.04417969 4.61554688 0.05320312 5.5625 0.0625 C6.27277344 0.07410156 6.98304688 0.08570312 7.71484375 0.09765625 C7.71484375 1.08765625 7.71484375 2.07765625 7.71484375 3.09765625 C4.31289505 5.19116314 1.66211963 5.27707788 -2.28515625 5.09765625 C-2.84765625 3.16015625 -2.84765625 3.16015625 -3.28515625 1.09765625 C-2.28515625 0.09765625 -2.28515625 0.09765625 0 0 Z " fill="#0F3FFF" transform="translate(390.28515625,119.90234375)"/>
<path d="M0 0 C0.66 1.32 1.32 2.64 2 4 C-1.63 4 -5.26 4 -9 4 C-8.67 3.01 -8.34 2.02 -8 1 C-5.29120665 -0.35439668 -2.99066732 -0.06501451 0 0 Z " fill="#1443FF" transform="translate(396,110)"/>
<path d="M0 0 C2.64 0.33 5.28 0.66 8 1 C8.33 1.99 8.66 2.98 9 4 C5.37 4 1.74 4 -2 4 C-1.34 2.68 -0.68 1.36 0 0 Z " fill="#0C3CFF" transform="translate(317,110)"/>
</svg>
